<svg xmlns="http://www.w3.org/2000/svg" viewBox="0 0 800 600" width="800" height="600">
  <rect width="800" height="600" fill="#f8fafc" />
  <path d="M100,500 L700,500" stroke="#e2e8f0" stroke-width="2" />
  <path d="M100,400 L700,400" stroke="#e2e8f0" stroke-width="2" />
  <path d="M100,300 L700,300" stroke="#e2e8f0" stroke-width="2" />
  <path d="M100,200 L700,200" stroke="#e2e8f0" stroke-width="2" />
  <path d="M100,100 L700,100" stroke="#e2e8f0" stroke-width="2" />
  
  <path d="M100,500 L100,100" stroke="#e2e8f0" stroke-width="2" />
  <path d="M200,500 L200,100" stroke="#e2e8f0" stroke-width="2" />
  <path d="M300,500 L300,100" stroke="#e2e8f0" stroke-width="2" />
  <path d="M400,500 L400,100" stroke="#e2e8f0" stroke-width="2" />
  <path d="M500,500 L500,100" stroke="#e2e8f0" stroke-width="2" />
  <path d="M600,500 L600,100" stroke="#e2e8f0" stroke-width="2" />
  <path d="M700,500 L700,100" stroke="#e2e8f0" stroke-width="2" />
  
  <path d="M100,450 L700,450" stroke="#e2e8f0" stroke-width="1" stroke-dasharray="5,5" />
  <path d="M100,350 L700,350" stroke="#e2e8f0" stroke-width="1" stroke-dasharray="5,5" />
  <path d="M100,250 L700,250" stroke="#e2e8f0" stroke-width="1" stroke-dasharray="5,5" />
  <path d="M100,150 L700,150" stroke="#e2e8f0" stroke-width="1" stroke-dasharray="5,5" />
  
  <path d="M150,500 L150,100" stroke="#e2e8f0" stroke-width="1" stroke-dasharray="5,5" />
  <path d="M250,500 L250,100" stroke="#e2e8f0" stroke-width="1" stroke-dasharray="5,5" />
  <path d="M350,500 L350,100" stroke="#e2e8f0" stroke-width="1" stroke-dasharray="5,5" />
  <path d="M450,500 L450,100" stroke="#e2e8f0" stroke-width="1" stroke-dasharray="5,5" />
  <path d="M550,500 L550,100" stroke="#e2e8f0" stroke-width="1" stroke-dasharray="5,5" />
  <path d="M650,500 L650,100" stroke="#e2e8f0" stroke-width="1" stroke-dasharray="5,5" />
  
  <path d="M100,500 L150,450 L200,470 L250,420 L300,430 L350,380 L400,350 L450,300 L500,320 L550,270 L600,220 L650,180 L700,150" stroke="#2563eb" stroke-width="3" fill="none" />
  
  <path d="M100,500 L150,450 L200,470 L250,420 L300,430 L350,380 L400,350 L450,300 L500,320 L550,270 L600,220 L650,180 L700,150 L700,500 Z" fill="rgba(37, 99, 235, 0.1)" />
  
  <circle cx="150" cy="450" r="5" fill="#2563eb" />
  <circle cx="200" cy="470" r="5" fill="#2563eb" />
  <circle cx="250" cy="420" r="5" fill="#2563eb" />
  <circle cx="300" cy="430" r="5" fill="#2563eb" />
  <circle cx="350" cy="380" r="5" fill="#2563eb" />
  <circle cx="400" cy="350" r="5" fill="#2563eb" />
  <circle cx="450" cy="300" r="5" fill="#2563eb" />
  <circle cx="500" cy="320" r="5" fill="#2563eb" />
  <circle cx="550" cy="270" r="5" fill="#2563eb" />
  <circle cx="600" cy="220" r="5" fill="#2563eb" />
  <circle cx="650" cy="180" r="5" fill="#2563eb" />
  <circle cx="700" cy="150" r="5" fill="#2563eb" />
  
  <path d="M100,500 L150,480 L200,490 L250,460 L300,470 L350,440 L400,420 L450,390 L500,400 L550,370 L600,340 L650,320 L700,300" stroke="#10b981" stroke-width="3" fill="none" />
  
  <text x="100" y="520" font-family="Arial" font-size="12" fill="#64748b">Ene</text>
  <text x="200" y="520" font-family="Arial" font-size="12" fill="#64748b">Feb</text>
  <text x="300" y="520" font-family="Arial" font-size="12" fill="#64748b">Mar</text>
  <text x="400" y="520" font-family="Arial" font-size="12" fill="#64748b">Abr</text>
  <text x="500" y="520" font-family="Arial" font-size="12" fill="#64748b">May</text>
  <text x="600" y="520" font-family="Arial" font-size="12" fill="#64748b">Jun</text>
  <text x="700" y="520" font-family="Arial" font-size="12" fill="#64748b">Jul</text>
  
  <text x="80" y="500" font-family="Arial" font-size="12" fill="#64748b">0</text>
  <text x="80" y="400" font-family="Arial" font-size="12" fill="#64748b">100</text>
  <text x="80" y="300" font-family="Arial" font-size="12" fill="#64748b">200</text>
  <text x="80" y="200" font-family="Arial" font-size="12" fill="#64748b">300</text>
  <text x="80" y="100" font-family="Arial" font-size="12" fill="#64748b">400</text>
</svg> 